<svg id="Layer_1" data-name="Layer 1" xmlns="http://www.w3.org/2000/svg" viewBox="0 0 761.68 181.89"><defs><style>.cls-1{fill:#fff;}.cls-2{fill:#fb5d5c;}</style></defs><path class="cls-1" d="M97.89,51.7h30.75V154H108.72V84.8q0-3,.06-8.36c0-3.57.07-6.34.07-8.29L89.47,154H68.71L49.46,68.15c0,1.94,0,4.7.07,8.29s.07,6.37.07,8.36V154H29.69V51.7h31.1L79.4,132.12Z"/><path class="cls-1" d="M209.89,144.72q-9.57,11.82-29.07,11.82t-29.07-11.82q-9.57-11.82-9.57-28.46,0-16.35,9.57-28.35t29.07-12q19.5,0,29.07,12t9.56,28.32Q219.45,132.9,209.89,144.72Zm-15.82-10.93q4.65-6.16,4.65-17.53t-4.65-17.49q-4.65-6.13-13.32-6.13T167.4,98.77q-4.68,6.14-4.69,17.49t4.69,17.53q4.68,6.17,13.35,6.17t13.3-6.17Z"/><path class="cls-1" d="M253.3,78.35v45.58q0,6.45,1.52,9.71,2.7,5.76,10.56,5.76,10.08,0,13.81-8.19,1.94-4.44,1.93-11.72V78.35h20.06V154H282V143.29c-.19.23-.65.92-1.39,2.08a13.44,13.44,0,0,1-2.63,3,27.29,27.29,0,0,1-9,5.69,30.31,30.31,0,0,1-10.05,1.52q-16.74,0-22.56-12.07-3.24-6.66-3.25-19.63V78.35Z"/><path class="cls-1" d="M312.62,93.12V79h10.55V58h19.56V79H355V93.12H342.73v40c0,3.1.4,5,1.18,5.79s3.19,1.14,7.22,1.14H353c.67,0,1.33-.06,2-.1v14.77l-9.36.35q-14,.48-19.15-4.86-3.33-3.39-3.33-10.47V93.12Z"/><path class="cls-1" d="M397.66,108a30.91,30.91,0,0,0,7.9-1.73c2.84-1.21,4.26-3.09,4.26-5.62q0-4.65-3.27-6.42T397,92.43q-7.08,0-10,3.47a14.34,14.34,0,0,0-2.82,6.94H365q.63-9.93,5.58-16.31,7.89-10,27-10a48,48,0,0,1,22.15,4.93q9.69,4.92,9.69,18.59v34.69c0,2.41,0,5.32.14,8.74.14,2.59.54,4.35,1.18,5.28a7.09,7.09,0,0,0,2.91,2.29V154H412.18a22.28,22.28,0,0,1-1.25-4.3c-.23-1.34-.41-2.87-.55-4.58a40.56,40.56,0,0,1-9.49,7.56,28.66,28.66,0,0,1-14.52,3.68q-10.32,0-17.06-5.86t-6.73-16.62q0-13.95,10.83-20.19,5.94-3.41,17.47-4.86Zm12.09,9.26a21.72,21.72,0,0,1-3.83,1.91,32.29,32.29,0,0,1-5.31,1.35l-4.5.83q-6.33,1.11-9.09,2.71a9,9,0,0,0-4.67,8.39q0,5.07,2.85,7.32a10.83,10.83,0,0,0,6.94,2.26,20.64,20.64,0,0,0,11.94-3.77q5.46-3.75,5.67-13.67Z"/><path class="cls-1" d="M541.09,78.62a22.06,22.06,0,0,1,8.81,6.8,21.67,21.67,0,0,1,4.3,9.72,65.3,65.3,0,0,1,.7,11.17L554.76,154H534.5V105.82a15.57,15.57,0,0,0-1.39-7.08q-2.64-5.26-9.71-5.27-8.19,0-11.31,6.8a21.47,21.47,0,0,0-1.6,8.67v45H490.58v-45q0-6.72-1.39-9.78-2.49-5.47-9.78-5.48-8.46,0-11.38,5.48-1.59,3.12-1.59,9.3V154h-20V78.48h19.21v11a32.26,32.26,0,0,1,6.94-8.4q5.76-4.44,14.92-4.44,8.67,0,14,3.82A22.29,22.29,0,0,1,508,89.54a25.31,25.31,0,0,1,9.64-9.78,29.59,29.59,0,0,1,13.6-3.12A26.39,26.39,0,0,1,541.09,78.62Z"/><path class="cls-1" d="M573.35,78.35h20V154h-20Z"/><path class="cls-1" d="M652.65,79.56a23.91,23.91,0,0,1,8.68,8.36V51.84h20V154H662.16V143.49a24.5,24.5,0,0,1-23.1,12.84q-13.26,0-22.31-10.72t-9-27.51q0-19.35,8.91-30.46t23.83-11.1A24.41,24.41,0,0,1,652.65,79.56Zm4.86,53.87q4.38-6.19,4.38-16.2,0-13.87-7-19.84a15,15,0,0,0-10-3.61q-8.67,0-12.73,6.55T628.1,116.6q0,10.49,4.13,16.76t12.52,6.28Q653.15,139.69,657.51,133.43Z"/><circle class="cls-1" cx="583.38" cy="57.95" r="10.03"/><circle class="cls-2" cx="716.69" cy="133.14" r="17.4"/></svg>